<svg xmlns="http://www.w3.org/2000/svg" fill="none" viewBox="0 0 391 27" class="w-[89.333vw] pl-[5.333vw] tablet:w-[37.5vw] tablet:pl-[2.5vw] desktop:w-[20.313vw] desktop:pl-[1.042vw]">
        <g fill="#8DC640" clip-path="url(#payment-options_svg__a)"><path d="M101.423 8.181a4.753 4.753 0 0 1-2.737.642h-1.215l.932-5.031h.893a4.174 4.174 0 0 1 2.271.5c.285.19.516.45.67.757.153.307.223.648.204.99a2.449 2.449 0 0 1-1.018 2.138m-72.467 6.318h-9.4l.608-3.288h5.9l.67-3.7h-5.84l.565-3.254h9.384l-1.887 10.242Zm77.528-13.069C105.102.479 103.01.001 100.268.001h-7.182l-2.67 14.495h-9.404l.6-3.288h5.668l.674-3.694-5.665.01.607-3.274h5.84l.777-4.248H77.656l-2.534 13.75h-4.348L73.326.002h-6.2l-2.534 13.75h-4.236L62.911.002h-6.194l-2.676 14.494h-9.475l.6-3.288h5.69l.671-3.672-5.685-.005.6-3.281h5.9l.773-4.248H16.181l-2.1 11.487L9.889.001H3.456L0 18.746h6.14l2.094-11.8 4.065 11.8h22.006l2.675-14.5h3.443l-2.676 14.5h57.9l1.677-9.152 2.719 9.152h6.143l-2.814-7.478.642-.139a5.498 5.498 0 0 0 3.293-1.935 5.98 5.98 0 0 0 1.161-3.779 4.482 4.482 0 0 0-1.984-3.989ZM111.55 16.53l.837-.045c.142-.002.282-.028.415-.077a.436.436 0 0 0 .219-.189.467.467 0 0 0 .064-.268.454.454 0 0 0-.169-.338.716.716 0 0 0-.487-.109l-.931.047.052.978Zm-.309 1.664-.151-2.948 1.308-.066c.201-.02.405-.002.6.05.141.045.262.139.342.263.089.129.139.28.144.437a.734.734 0 0 1-.175.54 1.028 1.028 0 0 1-.612.304c.086.034.168.08.242.134.13.11.245.237.343.377l.55.777-.486.025-.421-.594a6.056 6.056 0 0 0-.3-.393.874.874 0 0 0-.208-.186.594.594 0 0 0-.181-.07 1.203 1.203 0 0 0-.218 0l-.45.023.065 1.311-.392.016Z"></path><path d="M109.963 16.767a2.286 2.286 0 0 1 4.568-.233v.117a2.29 2.29 0 0 1-2.23 2.27 2.287 2.287 0 0 1-2.342-2.154m2.143-2.869a2.757 2.757 0 1 0 1.988.709 2.76 2.76 0 0 0-1.987-.707"></path></g><g clip-path="url(#payment-options_svg__b)"><mask id="payment-options_svg__c" width="66" height="23" x="135" y="0" maskUnits="userSpaceOnUse" style="mask-type: luminance;"><path fill="#fff" d="M200.863.001h-65.861v22.495h65.861V.001Z"></path></mask><g mask="url(#payment-options_svg__c)"><path fill="#862165" d="m187.376 2.212 5.479-.981V22.27h-5.479V2.212Zm8 0V22.27h5.484V1.231l-5.484.981ZM179.569 22.27h5.484V6.882h-5.484V22.27ZM143.337 9.058c-.693-.046-2.3-.149-2.3-1.593 0-1.743 2.31-1.743 3.176-1.743a19.1 19.1 0 0 1 4.905.871s.786.277 1.454.561l.062.017v-4.77l-.085-.025a19.586 19.586 0 0 0-7.177-1.145c-6.18 0-8.37 3.6-8.37 6.685 0 1.778.762 5.962 7.84 6.445.6.037 2.192.128 2.192 1.621 0 1.232-1.3 1.959-3.5 1.959a17.207 17.207 0 0 1-6.15-1.194v4.916c2.393.593 4.853.874 7.318.838 6.043 0 8.749-3.407 8.749-6.783 0-3.828-3.029-6.315-8.11-6.656m33.143-2.4c-5.067.163-7.64 2.436-7.64 6.955v8.658h5.528v-7.06c0-2.707.354-3.866 3.566-3.977v-4.5a7.667 7.667 0 0 0-1.454-.079m-14.882.205a19.091 19.091 0 0 1-3.123 5.357V1.231l-5.653 1.118v19.92h5.658v-6.157a21.386 21.386 0 0 1 2.448 6.158h6.777c-.67-2.786-3.6-7.925-3.6-7.925a24.828 24.828 0 0 0 3.972-7.481h-6.479Zm20.708-1.463a2.7 2.7 0 1 0 0-5.4 2.7 2.7 0 0 0 0 5.4Z"></path></g></g><g clip-path="url(#payment-options_svg__d)"><mask id="payment-options_svg__e" width="28" height="27" x="220" y="0" maskUnits="userSpaceOnUse" style="mask-type: luminance;"><path fill="#fff" d="M247.617.001h-26.754v26.735h26.754V.001Z"></path></mask><g fill="#fff" fill-rule="evenodd" clip-rule="evenodd" mask="url(#payment-options_svg__e)"><path d="m235.692 25.995 1.271-.979a15.13 15.13 0 0 0 1.562-1.589l.59-.76c.037-.049.052-.072.088-.124.054-.076.068-.066.09-.148h3.87c-.22.24-.457.463-.709.668l-.383.305c-.125.1-.263.207-.391.3a13.08 13.08 0 0 1-5.349 2.25 3.714 3.714 0 0 1-.636.079m-1.139 0v-3.6h3.945a13.598 13.598 0 0 1-1.291 1.515c-.085.085-.151.155-.238.239l-.742.661c-.524.44-1.084.837-1.674 1.185Zm-4.582-3.6h3.946v3.6a12.847 12.847 0 0 1-1.642-1.164l-.259-.218a12.56 12.56 0 0 1-.956-.924l-.886-1.021c-.076-.1-.135-.169-.2-.272m2.754 3.573a7.844 7.844 0 0 1-1.168-.183 12.595 12.595 0 0 1-4.764-2.12l-.394-.295c-.07-.052-.125-.1-.193-.152-.036-.03-.046-.044-.083-.075-.037-.031-.055-.038-.1-.081l-.194-.164c-.067-.059-.106-.115-.175-.169a1.636 1.636 0 0 1-.348-.34h3.866c.288.437.607.853.954 1.244.071.093.144.145.216.234a15.55 15.55 0 0 0 1.861 1.713l.522.388Zm6.249-4.235h-4.426v-3.788h5.985a9.092 9.092 0 0 1-.443 1.543 12.312 12.312 0 0 1-1 2.025.757.757 0 0 0-.127.217m-11.035-3.785h5.985v3.785h-4.423a.768.768 0 0 0-.115-.2l-.129-.216-.463-.861a10.677 10.677 0 0 1-.856-2.506m15.888 3.785h-4.077c.506-.862.911-1.78 1.208-2.734l.274-1.049h4.872c-.03.09-.065.179-.106.265l-.227.514a12.648 12.648 0 0 1-1.271 2.144l-.673.86Zm-21.448-3.787h4.9c.049.357.133.707.25 1.048.313.95.717 1.866 1.207 2.737h-4.08c-.019-.071-.593-.749-.661-.847l-1.148-1.87c-.163-.325-.34-.8-.467-1.068m-.239-8.524h24.2c.031.134.09.291.129.427.225.787.376 1.592.452 2.407.016.2.03.342.028.555-.002.213.027.33.027.555a13.058 13.058 0 0 1-.387 3.055c-.041.163-.072.313-.12.462-.054.148-.097.3-.129.454h-24.2l-.244-.9a13.066 13.066 0 0 1-.336-1.939 5.09 5.09 0 0 1-.031-.552c0-.225-.027-.335-.026-.556.008-1.191.176-2.376.5-3.523.044-.151.1-.305.136-.447m12.42-4.445h4.422c.028.072.066.14.115.2l.592 1.076c.176.352.266.59.406.944.192.507.343 1.03.45 1.562h-5.985V4.977Zm-5.057 0h4.422v3.785h-5.985a7.75 7.75 0 0 1 .275-1.049c.12-.358.226-.65.368-.982.19-.455.413-.897.666-1.32.096-.138.181-.282.254-.434Zm10.248-.001h4.078c.019.072.593.749.662.847.209.3.418.585.608.9.19.315.368.628.539.97.049.1.071.149.116.254l.238.53c.038.1.073.2.113.283h-4.872a4.68 4.68 0 0 1-.127-.508c-.046-.185-.086-.347-.141-.521a12.339 12.339 0 0 0-1.154-2.63l-.06-.125Zm-12.473 3.786h-4.899c.131-.272.309-.757.478-1.083.034-.067.072-.12.113-.2.079-.158.138-.265.222-.414a13.732 13.732 0 0 1 1.456-2.044c.084-.067.135-.046.273-.044h3.813a1.053 1.053 0 0 1-.108.211c-.29.497-.543 1.014-.757 1.548-.124.31-.241.628-.339.959a6.987 6.987 0 0 0-.255 1.068m7.285-8.048c.197.109.387.227.572.355.226.137 1.127.839 1.328 1.027l.252.225c.165.166.313.287.476.451l1.317 1.542h-3.945v-3.6Zm-.635 0v3.6h-3.946c.235-.351.588-.717.843-1.036l1.434-1.372c.345-.295.707-.57 1.084-.822.187-.136.382-.26.585-.37Zm1.827.028c.197.01.393.034.586.075.834.133 1.652.354 2.44.658l1.191.525a11.969 11.969 0 0 1 2.845 1.975c.13.098.248.211.351.338h-3.865a13.808 13.808 0 0 0-1.931-2.255c-.056-.05-.075-.053-.132-.106l-.468-.424a2.56 2.56 0 0 0-.245-.2c-.087-.063-.158-.13-.25-.2l-.522-.386Zm-6.568 3.573h-3.866c.048-.066.104-.126.165-.18.072-.071.115-.089.187-.158a12.998 12.998 0 0 1 4.821-2.777c.545-.17 1.1-.304 1.663-.4.208-.045.419-.073.632-.083-.205.179-.674.462-1.026.775-.052.046-.066.054-.117.095-.444.383-.867.79-1.267 1.219l-.307.35c-.319.367-.613.754-.88 1.159m-8.32 8.629c-.028.788.015 1.576.129 2.356.217 1.488.684 2.93 1.381 4.262a13.586 13.586 0 0 0 4.157 4.738c.645.454 1.327.852 2.04 1.19a13.443 13.443 0 0 0 5.216 1.245 12.8 12.8 0 0 0 3.734-.4c1.106-.278 2.171-.7 3.169-1.253.679-.38 1.326-.814 1.934-1.3.673-.54 1.29-1.147 1.843-1.81.254-.3.48-.589.707-.908l.472-.72.159-.265c.413-.698.758-1.435 1.03-2.2.152-.404.279-.816.379-1.236.544-2.17.54-4.44-.011-6.607a13.803 13.803 0 0 0-.622-1.836c-.079-.2-.177-.368-.258-.563a14.127 14.127 0 0 0-1.218-2.064c-.115-.167-.236-.314-.355-.466l-.556-.662c-.461-.51-.959-.985-1.49-1.422-.3-.247-.6-.485-.936-.7A13.199 13.199 0 0 0 235.798.08a10.14 10.14 0 0 0-1.165-.079l-1.184.007c-.219.03-.525.044-.751.07a13.02 13.02 0 0 0-3.289.815c-.481.182-.948.396-1.4.641-.093.054-.175.089-.275.149-.1.06-.17.091-.255.142-.085.051-.178.1-.264.16-.5.31-.978.654-1.432 1.028-.333.271-.6.54-.886.781l-.594.624c-.077.1-.127.135-.2.224-.131.155-.24.292-.367.454-.127.162-.244.306-.355.465a16.47 16.47 0 0 0-.651.991l-.444.8c-.236.467-.444.948-.623 1.44-.134.405-.282.818-.39 1.251-.117.45-.209.905-.277 1.364-.08.509-.124 1.023-.133 1.538Z"></path><path d="M228.04 16.117c.624 0 .483.1.741-.4l.486-.89c.046-.094.077-.145.123-.222.319-.55.725-1.4 1.043-1.922.033-.054.01-.023.044-.062.008.17.024.339.049.507.019.188.02.327.046.51l.219 2.279c.016.264-.108.209.665.209.029-.124.939-1.877 1.059-2.118l.176-.353.9-1.747c.065-.127.119-.21.186-.344.139-.29.309-.564.507-.817.1-.092.108-.013.111-.18h-1.059c.009.378.239.156-.291 1.218l-.2.406-.856 1.659a2.074 2.074 0 0 1-.238.4c0-.417-.2-2.141-.239-2.7-.02-.3-.079-.613-.079-.928h-.476l-1.6 2.956a5.785 5.785 0 0 1-.388.67c0-.72-.265-2.23-.265-3.018a1.034 1.034 0 0 1 .063-.361c.059-.141.146-.141.149-.3h-1.591c0 .2.109.085.19.578l.155 1.406c.048.562.369 3.318.369 3.575M223.326 12.124c0 .763.5 1.119 1.014 1.5.431.323 1.134.655.958 1.475a.945.945 0 0 1-.965.729 1.31 1.31 0 0 1-1.055-.32 1.468 1.468 0 0 1-.323-.815c-.125.033-.1.081-.133.211-.2.853-.392.827.089 1.051a3.354 3.354 0 0 0 2.33.122c.217-.083.42-.2.6-.348.169-.144.305-.323.4-.524.129-.257.19-.543.176-.83 0-1.424-2.092-1.539-2.092-2.62a1.018 1.018 0 0 1 1.4-.875.719.719 0 0 1 .311.166c.186.17.302.405.324.656h.105c.011-.13.234-.811.238-.98a4.557 4.557 0 0 0-1.375-.264c-.29.012-.577.064-.853.155a1.876 1.876 0 0 0-.8.526c-.227.28-.355.626-.364.986M238.261 10.88a26.477 26.477 0 0 1-.718 2.7c-.173.594-.384 1.385-.576 1.967-.068.2-.161.449-.374.5v.08h1.642c-.026-.313-.258-.04.188-1.48l.315-1.114c.271 0 .668-.024.924 0a.56.56 0 0 1 .559.394c.143-.011.121-.127.217-.47.049-.176.108-.37.153-.562-.161.013-.112.1-.314.163a8.248 8.248 0 0 1-1.408.048l.482-1.741c.13-.47.239-.376 1.054-.376.192 0 .377.068.524.19.322.3.158.376.35.392.039-.18.094-.355.162-.526l.086-.258c.033-.096.113-.222-.01-.222h-3.335c0 .136.08.216.08.318M241.598 11.569c.215-.018.109-.232.617-.468.32-.116.662-.156 1-.114l-1.138 3.92c-.1.334-.247 1.052-.559 1.135v.08h1.616c-.025-.3-.194-.015.047-.985.054-.219.112-.388.17-.6l.342-1.193c.216-.676.435-1.526.644-2.241.046-.155-.017-.118.517-.118a.831.831 0 0 1 .794.582c.143-.012.129-.135.234-.454.073-.178.128-.363.162-.552h-4.05c-.1 0-.162.289-.222.467-.06.178-.135.367-.175.539M235.242 10.827c.011.175-.01.352-.064.519l-.28.99a33.946 33.946 0 0 1-1.105 3.555c-.129.146-.181.1-.193.231h1.642c-.025-.3-.2-.041.053-1.006.059-.227.123-.44.185-.662.12-.435.251-.867.38-1.314.171-.595.383-1.389.577-1.965.066-.2.151-.456.367-.506v-.105c-2.2 0-1.562-.059-1.562.265"></path></g></g><g clip-path="url(#payment-options_svg__f)"><mask id="payment-options_svg__g" width="70" height="23" x="267" y="0" maskUnits="userSpaceOnUse" style="mask-type: luminance;"><path fill="#fff" d="m287.799.401-5.758 14.7-2.329-12.5a2.585 2.585 0 0 0-2.551-2.2h-9.414l-.13.621a23 23 0 0 1 5.457 1.838 2.367 2.367 0 0 1 1.314 1.9l4.411 17.238h5.848L293.61.401h-5.811Zm8.185 0-4.576 21.6h5.533l4.576-21.6h-5.533Zm31.717 5.831 1.676 8.11h-4.588l2.912-8.11Zm-.81-5.831a2.519 2.519 0 0 0-2.355 1.584l-8.3 20.016h5.807l1.155-3.227h7.1l.669 3.227h5.116l-4.466-21.6h-4.726Zm-14.522-.4c-5.468 0-9.316 2.936-9.352 7.14-.036 3.111 2.747 4.844 4.844 5.879 2.154 1.058 2.877 1.737 2.869 2.684-.016 1.45-1.719 2.089-3.311 2.114a11.472 11.472 0 0 1-5.681-1.365l-1 4.733a16.6 16.6 0 0 0 6.152 1.147c5.812 0 9.613-2.9 9.631-7.391.025-5.7-7.8-6.015-7.75-8.562.017-.774.748-1.6 2.347-1.809a10.35 10.35 0 0 1 5.454.966l.972-4.58a14.732 14.732 0 0 0-5.175-.956Z"></path></mask><g mask="url(#payment-options_svg__g)"><path fill="url(#payment-options_svg__h)" d="M336.078.001h-68.461v22.333h68.461V.001Z"></path></g></g><g clip-path="url(#payment-options_svg__i)"><mask id="payment-options_svg__j" width="35" height="27" x="356" y="0" maskUnits="userSpaceOnUse" style="mask-type: luminance;"><path fill="#fff" d="M390.065.001h-33.987v26.373h33.987V.001Z"></path></mask><g mask="url(#payment-options_svg__j)"><path fill="#fff" d="M362.263 26.315v-1.751a1.024 1.024 0 0 0-.67-1.05 1.027 1.027 0 0 0-.439-.059 1.147 1.147 0 0 0-.992.5 1.019 1.019 0 0 0-.934-.5.94.94 0 0 0-.817.408v-.35h-.613v2.8h.616v-1.546c0-.5.262-.729.671-.729.409 0 .613.263.613.729v1.546h.613v-1.546a.653.653 0 0 1 .395-.682.642.642 0 0 1 .276-.047c.408 0 .613.263.613.729v1.546l.668.002Zm9.073-2.8h-.992v-.846h-.613v.846h-.554v.554h.554v1.284c0 .642.263 1.021.963 1.021.266-.004.526-.073.759-.2l-.175-.525a.96.96 0 0 1-.525.146c-.292 0-.408-.175-.408-.467v-1.254h.992l-.001-.559Zm5.193-.058a.82.82 0 0 0-.729.408v-.35h-.613v2.8h.613V24.74c0-.467.2-.729.583-.729.128.005.255.024.379.058l.175-.583a1.913 1.913 0 0 0-.408-.029Zm-7.848.292a1.999 1.999 0 0 0-1.138-.292c-.7 0-1.167.35-1.167.9 0 .467.35.729.963.817l.292.029c.321.058.5.146.5.292 0 .2-.233.35-.642.35a1.61 1.61 0 0 1-.933-.292l-.292.467c.354.238.774.36 1.2.35.817 0 1.284-.379 1.284-.9 0-.5-.379-.758-.963-.846l-.292-.029c-.262-.029-.467-.088-.467-.263 0-.2.2-.321.525-.321.305.013.604.093.875.233l.255-.495Zm16.279-.292a.82.82 0 0 0-.729.408v-.35h-.617v2.8h.613V24.74c0-.467.2-.729.583-.729.128.005.255.024.379.058l.175-.583a1.913 1.913 0 0 0-.408-.029m-7.819 1.459a1.396 1.396 0 0 0 .911 1.374 1.4 1.4 0 0 0 .577.085c.359.02.713-.095.992-.321l-.292-.5c-.206.167-.463.26-.729.263a.83.83 0 0 1-.846-.9.865.865 0 0 1 .846-.9c.266.003.523.095.729.262l.292-.5a1.45 1.45 0 0 0-.992-.321 1.398 1.398 0 0 0-1.488 1.458Zm5.66.001v-1.4h-.613v.35a1.057 1.057 0 0 0-.875-.408 1.458 1.458 0 0 0-.989 2.467c.259.272.614.433.989.45a.98.98 0 0 0 .875-.408v.35h.613v-1.401Zm-2.246 0a.846.846 0 0 1 1.184-.836.84.84 0 0 1 .461.494c.039.11.055.226.047.342a.846.846 0 0 1-.846.906.85.85 0 0 1-.846-.906Zm-7.323-1.459a1.457 1.457 0 0 0-1.409 1.473 1.458 1.458 0 0 0 1.438 1.444c.412.009.814-.125 1.138-.379l-.292-.438c-.234.182-.52.284-.817.292a.786.786 0 0 1-.846-.671h2.074v-.233a1.293 1.293 0 0 0-.298-1.041 1.28 1.28 0 0 0-.986-.447m0 .525a.682.682 0 0 1 .7.671h-1.457a.738.738 0 0 1 .759-.671m15.2.934v-2.509h-.618v1.459a1.057 1.057 0 0 0-.875-.408 1.458 1.458 0 0 0-.989 2.467c.259.272.614.433.989.45a.98.98 0 0 0 .875-.408v.35h.613l.005-1.401Zm-2.246 0a.846.846 0 0 1 1.184-.836.84.84 0 0 1 .461.494c.039.11.055.226.047.342a.846.846 0 0 1-.846.906.85.85 0 0 1-.846-.906Zm-20.48 0v-1.4h-.613v.35a1.057 1.057 0 0 0-.875-.408 1.458 1.458 0 0 0-.989 2.467c.259.272.614.433.989.45a.98.98 0 0 0 .875-.408v.35h.613v-1.401Zm-2.276 0a.846.846 0 0 1 1.184-.836.84.84 0 0 1 .461.494c.039.11.055.226.047.342a.846.846 0 0 1-.846.906.85.85 0 0 1-.846-.906Z"></path><path fill="#FF5F00" d="M377.667 2.247h-9.19V18.76h9.19V2.247Z"></path><path fill="#EB001B" d="M369.06 10.502a10.53 10.53 0 0 1 4-8.256 10.502 10.502 0 0 0-16.88 9.755 10.507 10.507 0 0 0 5.586 7.836 10.5 10.5 0 0 0 4.812 1.165c2.35.002 4.633-.79 6.477-2.246a10.486 10.486 0 0 1-4-8.256"></path><path fill="#F79E1B" d="M390.065 10.502a10.493 10.493 0 0 1-11.612 10.443 10.491 10.491 0 0 1-5.367-2.187 10.525 10.525 0 0 0 0-16.512 10.49 10.49 0 0 1 16.979 8.256Z"></path></g></g><defs><clipPath id="payment-options_svg__a"><path fill="#fff" d="M0 .001h115.002v19.405H0z"></path></clipPath><clipPath id="payment-options_svg__b"><path fill="#fff" d="M135.002.001h65.861v22.496h-65.861z"></path></clipPath><clipPath id="payment-options_svg__d"><path fill="#fff" d="M220.863.001h26.754v26.735h-26.754z"></path></clipPath><clipPath id="payment-options_svg__f"><path fill="#fff" d="M267.617.001h68.461v22.333h-68.461z"></path></clipPath><clipPath id="payment-options_svg__i"><path fill="#fff" d="M356.078.001h33.987v26.373h-33.987z"></path></clipPath><linearGradient id="payment-options_svg__h" x1="267.617" x2="267.959" y1="22.334" y2="22.334" gradientUnits="userSpaceOnUse"><stop stop-color="#151947"></stop><stop offset="1" stop-color="#003383"></stop></linearGradient></defs></svg>