<svg id="SvgjsSvg1049" width="288" height="92" xmlns="http://www.w3.org/2000/svg" version="1.1" xmlns:xlink="http://www.w3.org/1999/xlink" xmlns:svgjs="http://svgjs.com/svgjs" class="apexcharts-svg" xmlns:data="ApexChartsNS" transform="translate(0, 0)" style="background: transparent;"><g id="SvgjsG1051" class="apexcharts-inner apexcharts-graphical" transform="translate(0, 0)"><defs id="SvgjsDefs1050"><clipPath id="gridRectMaskcntieusb"><rect id="SvgjsRect1065" width="294" height="94" x="-3" y="-1" rx="0" ry="0" opacity="1" stroke-width="0" stroke="none" stroke-dasharray="0" fill="#fff"></rect></clipPath><clipPath id="gridRectMarkerMaskcntieusb"><rect id="SvgjsRect1066" width="292" height="96" x="-2" y="-2" rx="0" ry="0" opacity="1" stroke-width="0" stroke="none" stroke-dasharray="0" fill="#fff"></rect></clipPath></defs><line id="SvgjsLine1056" x1="0" y1="0" x2="0" y2="92" stroke="#b6b6b6" stroke-dasharray="3" class="apexcharts-xcrosshairs" x="0" y="0" width="1" height="92" fill="#b1b9c4" filter="none" fill-opacity="0.9" stroke-width="1"></line><g id="SvgjsG1073" class="apexcharts-xaxis" transform="translate(0, 0)"><g id="SvgjsG1074" class="apexcharts-xaxis-texts-g" transform="translate(0, -4)"></g></g><g id="SvgjsG1076" class="apexcharts-grid"><g id="SvgjsG1077" class="apexcharts-gridlines-horizontal" style="display: none;"><line id="SvgjsLine1079" x1="0" y1="0" x2="288" y2="0" stroke="#e0e0e0" stroke-dasharray="0" class="apexcharts-gridline"></line><line id="SvgjsLine1080" x1="0" y1="9.2" x2="288" y2="9.2" stroke="#e0e0e0" stroke-dasharray="0" class="apexcharts-gridline"></line><line id="SvgjsLine1081" x1="0" y1="18.4" x2="288" y2="18.4" stroke="#e0e0e0" stroke-dasharray="0" class="apexcharts-gridline"></line><line id="SvgjsLine1082" x1="0" y1="27.599999999999998" x2="288" y2="27.599999999999998" stroke="#e0e0e0" stroke-dasharray="0" class="apexcharts-gridline"></line><line id="SvgjsLine1083" x1="0" y1="36.8" x2="288" y2="36.8" stroke="#e0e0e0" stroke-dasharray="0" class="apexcharts-gridline"></line><line id="SvgjsLine1084" x1="0" y1="46" x2="288" y2="46" stroke="#e0e0e0" stroke-dasharray="0" class="apexcharts-gridline"></line><line id="SvgjsLine1085" x1="0" y1="55.2" x2="288" y2="55.2" stroke="#e0e0e0" stroke-dasharray="0" class="apexcharts-gridline"></line><line id="SvgjsLine1086" x1="0" y1="64.4" x2="288" y2="64.4" stroke="#e0e0e0" stroke-dasharray="0" class="apexcharts-gridline"></line><line id="SvgjsLine1087" x1="0" y1="73.60000000000001" x2="288" y2="73.60000000000001" stroke="#e0e0e0" stroke-dasharray="0" class="apexcharts-gridline"></line><line id="SvgjsLine1088" x1="0" y1="82.80000000000001" x2="288" y2="82.80000000000001" stroke="#e0e0e0" stroke-dasharray="0" class="apexcharts-gridline"></line><line id="SvgjsLine1089" x1="0" y1="92.00000000000001" x2="288" y2="92.00000000000001" stroke="#e0e0e0" stroke-dasharray="0" class="apexcharts-gridline"></line></g><g id="SvgjsG1078" class="apexcharts-gridlines-vertical" style="display: none;"></g><line id="SvgjsLine1091" x1="0" y1="92" x2="288" y2="92" stroke="transparent" stroke-dasharray="0"></line><line id="SvgjsLine1090" x1="0" y1="1" x2="0" y2="92" stroke="transparent" stroke-dasharray="0"></line></g><g id="SvgjsG1068" class="apexcharts-line-series apexcharts-plot-series"><g id="SvgjsG1069" class="apexcharts-series" seriesName="Sales" data:longestSeries="true" rel="1" data:realIndex="0"><path id="SvgjsPath1072" d="M0 11.499999999999986C16.799999999999997 11.499999999999986 31.200000000000003 -1.4210854715202004e-14 48 -1.4210854715202004e-14C64.8 -1.4210854715202004e-14 79.2 22.999999999999986 96 22.999999999999986C112.8 22.999999999999986 127.2 45.99999999999999 144 45.99999999999999C160.8 45.99999999999999 175.2 34.499999999999986 192 34.499999999999986C208.8 34.499999999999986 223.2 45.99999999999999 240 45.99999999999999C256.8 45.99999999999999 271.2 57.49999999999999 288 57.49999999999999C288 57.49999999999999 288 57.49999999999999 288 57.49999999999999 " fill="none" fill-opacity="1" stroke="rgba(61,186,162,1)" stroke-opacity="1" stroke-linecap="butt" stroke-width="2" stroke-dasharray="0" class="apexcharts-line" index="0" clip-path="url(#gridRectMaskcntieusb)" pathTo="M 0 11.499999999999986C 16.799999999999997 11.499999999999986 31.200000000000003 -1.4210854715202004e-14 48 -1.4210854715202004e-14C 64.8 -1.4210854715202004e-14 79.2 22.999999999999986 96 22.999999999999986C 112.8 22.999999999999986 127.2 45.99999999999999 144 45.99999999999999C 160.8 45.99999999999999 175.2 34.499999999999986 192 34.499999999999986C 208.8 34.499999999999986 223.2 45.99999999999999 240 45.99999999999999C 256.8 45.99999999999999 271.2 57.49999999999999 288 57.49999999999999" pathFrom="M -1 92L -1 92L 48 92L 96 92L 144 92L 192 92L 240 92L 288 92"></path><g id="SvgjsG1070" class="apexcharts-series-markers-wrap" data:realIndex="0"></g></g><g id="SvgjsG1071" class="apexcharts-datalabels" data:realIndex="0"></g></g><line id="SvgjsLine1092" x1="0" y1="0" x2="288" y2="0" stroke="#b6b6b6" stroke-dasharray="0" stroke-width="1" class="apexcharts-ycrosshairs"></line><line id="SvgjsLine1093" x1="0" y1="0" x2="288" y2="0" stroke-dasharray="0" stroke-width="0" class="apexcharts-ycrosshairs-hidden"></line><g id="SvgjsG1094" class="apexcharts-yaxis-annotations"></g><g id="SvgjsG1095" class="apexcharts-xaxis-annotations"></g><g id="SvgjsG1096" class="apexcharts-point-annotations"></g></g><rect id="SvgjsRect1055" width="0" height="0" x="0" y="0" rx="0" ry="0" opacity="1" stroke-width="0" stroke="none" stroke-dasharray="0" fill="#fefefe"></rect><g id="SvgjsG1075" class="apexcharts-yaxis" rel="0" transform="translate(-18, 0)"></g><g id="SvgjsG1052" class="apexcharts-annotations"></g></svg>